<svg width="500" height="500" viewBox="0 0 500 500" fill="none" xmlns="http://www.w3.org/2000/svg">
<path fill-rule="evenodd" clip-rule="evenodd" d="M250 75C263.807 75 275 86.1929 275 100V226.654C291.629 216.107 311.351 210 332.5 210C353.649 210 373.371 216.107 390 226.654V100C390 86.1929 401.193 75 415 75C428.807 75 440 86.1929 440 100V400C440 413.807 428.807 425 415 425C403.839 425 394.387 417.687 391.173 407.591C374.302 418.601 354.148 425 332.5 425C310.324 425 289.717 418.285 272.6 406.778C268.022 417.492 257.388 425 245 425H167.5C145.852 425 125.698 418.601 108.827 407.591C105.613 417.687 96.1606 425 85 425C71.1929 425 60 413.807 60 400L60 317.529C60 317.519 60 317.51 60 317.5C60 317.49 60 317.481 60 317.471L60 235C60 221.193 71.1929 210 85 210C96.1606 210 105.613 217.313 108.827 227.409C125.698 216.399 145.852 210 167.5 210C188.649 210 208.371 216.107 225 226.654V100C225 86.1929 236.193 75 250 75ZM225 317.5C225 317.493 225 317.486 225 317.478C224.988 285.732 199.249 260 167.5 260C135.751 260 110.011 285.732 110 317.479C110 317.486 110 317.493 110 317.5C110 317.507 110 317.514 110 317.521C110.011 349.268 135.751 375 167.5 375H225V317.5ZM390 317.5C390 349.256 364.256 375 332.5 375C300.744 375 275 349.256 275 317.5C275 285.744 300.744 260 332.5 260C364.256 260 390 285.744 390 317.5Z" fill="currentColor"/>
</svg>
